<svg width="25" height="25" viewBox="0 0 25 25" fill="none" xmlns="http://www.w3.org/2000/svg">
<circle cx="12.5" cy="12.5" r="12.5" fill="#111213"/>
<path d="M12 6.16667C15.2218 6.16667 17.8334 8.77825 17.8334 12C17.8334 15.2218 15.2218 17.8333 12 17.8333C8.77827 17.8333 6.16669 15.2218 6.16669 12C6.16669 8.77825 8.77827 6.16667 12 6.16667ZM12 7.33333C10.7623 7.33333 9.57536 7.825 8.70019 8.70017C7.82502 9.57534 7.33335 10.7623 7.33335 12C7.33335 13.2377 7.82502 14.4247 8.70019 15.2998C9.57536 16.175 10.7623 16.6667 12 16.6667C13.2377 16.6667 14.4247 16.175 15.2999 15.2998C16.175 14.4247 16.6667 13.2377 16.6667 12C16.6667 10.7623 16.175 9.57534 15.2999 8.70017C14.4247 7.825 13.2377 7.33333 12 7.33333ZM14.2359 9.27992C14.3029 9.23298 14.3842 9.21117 14.4656 9.21832C14.547 9.22547 14.6233 9.26112 14.681 9.319C14.7386 9.3766 14.7739 9.45276 14.7807 9.53393C14.7874 9.61511 14.7651 9.69604 14.7178 9.76233C13.4461 11.5392 12.7461 12.4912 12.6189 12.6189C12.4547 12.7828 12.2321 12.8749 12 12.8749C11.768 12.8749 11.5454 12.7828 11.3811 12.6189C11.2172 12.4547 11.1251 12.2321 11.1251 12C11.1251 11.7679 11.2172 11.5453 11.3811 11.3811C11.5993 11.1635 12.5507 10.4629 14.2359 9.27992ZM15.2084 11.4167C15.3631 11.4167 15.5114 11.4781 15.6208 11.5875C15.7302 11.6969 15.7917 11.8453 15.7917 12C15.7917 12.1547 15.7302 12.3031 15.6208 12.4125C15.5114 12.5219 15.3631 12.5833 15.2084 12.5833C15.0536 12.5833 14.9053 12.5219 14.7959 12.4125C14.6865 12.3031 14.625 12.1547 14.625 12C14.625 11.8453 14.6865 11.6969 14.7959 11.5875C14.9053 11.4781 15.0536 11.4167 15.2084 11.4167ZM8.79169 11.4167C8.9464 11.4167 9.09477 11.4781 9.20417 11.5875C9.31356 11.6969 9.37502 11.8453 9.37502 12C9.37502 12.1547 9.31356 12.3031 9.20417 12.4125C9.09477 12.5219 8.9464 12.5833 8.79169 12.5833C8.63698 12.5833 8.4886 12.5219 8.37921 12.4125C8.26981 12.3031 8.20835 12.1547 8.20835 12C8.20835 11.8453 8.26981 11.6969 8.37921 11.5875C8.4886 11.4781 8.63698 11.4167 8.79169 11.4167ZM10.1439 9.319C10.2532 9.42854 10.3146 9.57703 10.3145 9.73183C10.3144 9.88663 10.2528 10.035 10.1433 10.1444C10.0337 10.2538 9.88524 10.3152 9.73044 10.3151C9.57565 10.315 9.42723 10.2534 9.31785 10.1438C9.26369 10.0896 9.22075 10.0252 9.19147 9.95439C9.16219 9.88356 9.14714 9.80765 9.1472 9.73101C9.14725 9.65436 9.1624 9.57847 9.19178 9.50768C9.22116 9.43689 9.2642 9.37258 9.31844 9.31842C9.42797 9.20904 9.57647 9.14765 9.73127 9.14776C9.80791 9.14781 9.8838 9.16297 9.95459 9.19235C10.0254 9.22173 10.0897 9.26477 10.1439 9.319ZM12 8.20833C12.1547 8.20833 12.3031 8.26979 12.4125 8.37919C12.5219 8.48859 12.5834 8.63696 12.5834 8.79167C12.5834 8.94638 12.5219 9.09475 12.4125 9.20415C12.3031 9.31354 12.1547 9.375 12 9.375C11.8453 9.375 11.6969 9.31354 11.5875 9.20415C11.4781 9.09475 11.4167 8.94638 11.4167 8.79167C11.4167 8.63696 11.4781 8.48859 11.5875 8.37919C11.6969 8.26979 11.8453 8.20833 12 8.20833Z" fill="white"/>
</svg>
