<svg width="12" height="12" viewBox="0 0 12 12" fill="none" xmlns="http://www.w3.org/2000/svg">
<path d="M6 1C8.76 1 11 3.24 11 6C11 8.76 8.76 11 6 11C3.24 11 1 8.76 1 6C1 3.24 3.24 1 6 1ZM6 2C3.79 2 2 3.79 2 6C2 8.21 3.79 10 6 10C8.21 10 10 8.21 10 6C10 3.79 8.21 2 6 2ZM6 3.5C6.91 3.5 7.7065 3.9865 8.144 4.714L7.287 5.2285C7.15213 5.00362 6.96067 4.81803 6.7317 4.69022C6.50273 4.56242 6.24426 4.49687 5.98206 4.50011C5.71986 4.50336 5.46309 4.57528 5.23735 4.70871C5.01161 4.84214 4.8248 5.03241 4.69554 5.26056C4.56627 5.48871 4.49907 5.74675 4.50064 6.00897C4.50221 6.27119 4.57249 6.52841 4.70447 6.755C4.83646 6.98158 5.02553 7.16961 5.25285 7.30033C5.48017 7.43105 5.73778 7.49989 6 7.5C6.25907 7.50017 6.51376 7.43319 6.73923 7.30561C6.9647 7.17802 7.15325 6.99417 7.2865 6.772L8.144 7.286C7.86301 7.75531 7.43582 8.11949 6.92796 8.32267C6.4201 8.52586 5.85961 8.55684 5.33245 8.41086C4.80529 8.26488 4.34057 7.95001 4.00957 7.51452C3.67857 7.07904 3.49956 6.547 3.5 6C3.5 4.62 4.62 3.5 6 3.5Z" fill="#888B91"/>
</svg>
