<svg width="25" height="25" viewBox="0 0 25 25" fill="none" xmlns="http://www.w3.org/2000/svg">
<circle cx="12.5" cy="12.5" r="12.5" fill="#111213"/>
<path d="M9.66669 7.91667C9.66669 7.29783 9.91252 6.70433 10.3501 6.26675C10.7877 5.82916 11.3812 5.58333 12 5.58333C12.6189 5.58333 13.2124 5.82916 13.6499 6.26675C14.0875 6.70433 14.3334 7.29783 14.3334 7.91667V10.9821C15.0468 11.4788 15.583 12.1903 15.8641 13.0129C16.1451 13.8356 16.1563 14.7264 15.896 15.5559C15.6356 16.3853 15.1174 17.11 14.4167 17.6245C13.716 18.139 12.8693 18.4164 12 18.4164C11.1307 18.4164 10.2841 18.139 9.58335 17.6245C8.88263 17.11 8.36439 16.3853 8.10407 15.5559C7.84375 14.7264 7.85493 13.8356 8.13598 13.0129C8.41703 12.1903 8.95328 11.4788 9.66669 10.9821V7.91667ZM10.334 11.9387C9.82429 12.2935 9.44108 12.8016 9.24019 13.3892C9.03929 13.9769 9.03119 14.6133 9.21708 15.2058C9.40296 15.7983 9.77312 16.3161 10.2737 16.6837C10.7742 17.0512 11.379 17.2494 12 17.2494C12.621 17.2494 13.2258 17.0512 13.7264 16.6837C14.2269 16.3161 14.5971 15.7983 14.783 15.2058C14.9688 14.6133 14.9608 13.9769 14.7599 13.3892C14.559 12.8016 14.1758 12.2935 13.666 11.9387L13.1667 11.5905V7.91667C13.1667 7.60725 13.0438 7.3105 12.825 7.09171C12.6062 6.87291 12.3094 6.75 12 6.75C11.6906 6.75 11.3939 6.87291 11.1751 7.09171C10.9563 7.3105 10.8334 7.60725 10.8334 7.91667V11.5905L10.334 11.9387ZM9.66669 14.3333H14.3334C14.3334 14.9522 14.0875 15.5457 13.6499 15.9832C13.2124 16.4208 12.6189 16.6667 12 16.6667C11.3812 16.6667 10.7877 16.4208 10.3501 15.9832C9.91252 15.5457 9.66669 14.9522 9.66669 14.3333Z" fill="white"/>
</svg>
