<svg width="32" height="32" viewBox="0 0 32 32" fill="none" xmlns="http://www.w3.org/2000/svg">
<circle cx="16" cy="16" r="16" fill="#111213"/>
<path d="M7.001 21V11.432H8.041V15.761H9.718L12.344 11.432H13.436L10.537 16.216L13.475 21H12.37L9.718 16.697H8.041V21H7.001ZM14.8591 21V14.058H15.6651L15.8861 14.825C16.2328 14.5823 16.6184 14.3743 17.0431 14.201C17.4764 14.0277 17.9574 13.941 18.4861 13.941C18.9194 13.941 19.2878 14.0407 19.5911 14.24C19.9031 14.4307 20.1371 14.6733 20.2931 14.968C20.5098 14.812 20.7698 14.656 21.0731 14.5C21.3851 14.344 21.7144 14.214 22.0611 14.11C22.4164 13.9973 22.7588 13.941 23.0881 13.941C23.5908 13.941 24.0024 14.0493 24.3231 14.266C24.6438 14.474 24.8778 14.76 25.0251 15.124C25.1811 15.4793 25.2591 15.878 25.2591 16.32V21H24.2321V16.398C24.2321 16.1033 24.1714 15.8433 24.0501 15.618C23.9374 15.384 23.7728 15.202 23.5561 15.072C23.3394 14.942 23.0751 14.877 22.7631 14.877C22.3731 14.877 21.9744 14.9507 21.5671 15.098C21.1598 15.2453 20.7828 15.423 20.4361 15.631C20.4794 15.761 20.5098 15.891 20.5271 16.021C20.5531 16.1423 20.5661 16.2723 20.5661 16.411V21H19.5391V16.398C19.5391 16.1033 19.4784 15.8433 19.3571 15.618C19.2444 15.384 19.0798 15.202 18.8631 15.072C18.6551 14.942 18.3951 14.877 18.0831 14.877C17.7971 14.877 17.5284 14.9073 17.2771 14.968C17.0344 15.02 16.8004 15.098 16.5751 15.202C16.3584 15.2973 16.1288 15.4143 15.8861 15.553V21H14.8591Z" fill="white"/>
</svg>
