<svg width="17" height="16" viewBox="0 0 17 16" fill="none" xmlns="http://www.w3.org/2000/svg">
<path d="M3.16665 3.33333V12.6667H13.8333V3.33333H3.16665ZM2.49998 2H14.5C14.6768 2 14.8464 2.07024 14.9714 2.19526C15.0964 2.32029 15.1666 2.48986 15.1666 2.66667V13.3333C15.1666 13.5101 15.0964 13.6797 14.9714 13.8047C14.8464 13.9298 14.6768 14 14.5 14H2.49998C2.32317 14 2.1536 13.9298 2.02858 13.8047C1.90355 13.6797 1.83331 13.5101 1.83331 13.3333V2.66667C1.83331 2.48986 1.90355 2.32029 2.02858 2.19526C2.1536 2.07024 2.32317 2 2.49998 2ZM10.362 6.52867L9.16665 5.33333H12.5V8.66667L11.3046 7.47133L8.72865 10.0473L7.31465 8.63333L5.42865 10.5187L4.48598 9.576L7.31465 6.74733L8.72865 8.162L10.362 6.52867Z" fill="white"/>
</svg>
