<svg width="21" height="20" viewBox="0 0 21 20" fill="none" xmlns="http://www.w3.org/2000/svg">
<path d="M17.1667 18.3333H3.83333C3.61232 18.3333 3.40036 18.2455 3.24408 18.0892C3.0878 17.9329 3 17.721 3 17.5V2.49996C3 2.27895 3.0878 2.06698 3.24408 1.9107C3.40036 1.75442 3.61232 1.66663 3.83333 1.66663H17.1667C17.3877 1.66663 17.5996 1.75442 17.7559 1.9107C17.9122 2.06698 18 2.27895 18 2.49996V17.5C18 17.721 17.9122 17.9329 17.7559 18.0892C17.5996 18.2455 17.3877 18.3333 17.1667 18.3333ZM16.3333 16.6666V3.33329H4.66667V16.6666H16.3333ZM8 4.99996V6.66663C8 7.32967 8.26339 7.96555 8.73223 8.43439C9.20107 8.90323 9.83696 9.16663 10.5 9.16663C11.163 9.16663 11.7989 8.90323 12.2678 8.43439C12.7366 7.96555 13 7.32967 13 6.66663V4.99996H14.6667V6.66663C14.6667 7.7717 14.2277 8.8315 13.4463 9.6129C12.6649 10.3943 11.6051 10.8333 10.5 10.8333C9.39493 10.8333 8.33512 10.3943 7.55372 9.6129C6.77232 8.8315 6.33333 7.7717 6.33333 6.66663V4.99996H8Z" fill="white"/>
</svg>
