<svg width="17" height="16" viewBox="0 0 17 16" fill="none" xmlns="http://www.w3.org/2000/svg">
<path d="M8.49998 1.33337C12.182 1.33337 15.1666 4.31804 15.1666 8.00004C15.1666 11.682 12.182 14.6667 8.49998 14.6667C4.81798 14.6667 1.83331 11.682 1.83331 8.00004C1.83331 4.31804 4.81798 1.33337 8.49998 1.33337ZM8.49998 2.66671C7.08549 2.66671 5.72894 3.22861 4.72874 4.2288C3.72855 5.229 3.16665 6.58555 3.16665 8.00004C3.16665 9.41453 3.72855 10.7711 4.72874 11.7713C5.72894 12.7715 7.08549 13.3334 8.49998 13.3334C9.91447 13.3334 11.271 12.7715 12.2712 11.7713C13.2714 10.7711 13.8333 9.41453 13.8333 8.00004C13.8333 6.58555 13.2714 5.229 12.2712 4.2288C11.271 3.22861 9.91447 2.66671 8.49998 2.66671ZM11.0553 4.89137C11.1318 4.83774 11.2247 4.81281 11.3178 4.82098C11.4108 4.82915 11.498 4.86989 11.564 4.93604C11.6298 5.00187 11.6702 5.0889 11.6778 5.18168C11.6855 5.27445 11.6601 5.36694 11.606 5.44271C10.1526 7.47337 9.35265 8.56137 9.20731 8.70737C9.01959 8.89472 8.7652 8.99994 8.49998 8.99994C8.23476 8.99994 7.98037 8.89472 7.79265 8.70737C7.6053 8.51965 7.50008 8.26526 7.50008 8.00004C7.50008 7.73482 7.6053 7.48044 7.79265 7.29271C8.04198 7.04404 9.12931 6.24337 11.0553 4.89137ZM12.1666 7.33337C12.3435 7.33337 12.513 7.40361 12.6381 7.52864C12.7631 7.65366 12.8333 7.82323 12.8333 8.00004C12.8333 8.17685 12.7631 8.34642 12.6381 8.47145C12.513 8.59647 12.3435 8.66671 12.1666 8.66671C11.9898 8.66671 11.8203 8.59647 11.6952 8.47145C11.5702 8.34642 11.5 8.17685 11.5 8.00004C11.5 7.82323 11.5702 7.65366 11.6952 7.52864C11.8203 7.40361 11.9898 7.33337 12.1666 7.33337ZM4.83331 7.33337C5.01012 7.33337 5.17969 7.40361 5.30472 7.52864C5.42974 7.65366 5.49998 7.82323 5.49998 8.00004C5.49998 8.17685 5.42974 8.34642 5.30472 8.47145C5.17969 8.59647 5.01012 8.66671 4.83331 8.66671C4.6565 8.66671 4.48693 8.59647 4.36191 8.47145C4.23688 8.34642 4.16665 8.17685 4.16665 8.00004C4.16665 7.82323 4.23688 7.65366 4.36191 7.52864C4.48693 7.40361 4.6565 7.33337 4.83331 7.33337ZM6.37865 4.93604C6.50365 5.06122 6.57381 5.23094 6.57368 5.40785C6.57356 5.58475 6.50316 5.75437 6.37798 5.87937C6.2528 6.00438 6.08308 6.07454 5.90618 6.07441C5.72927 6.07429 5.55965 6.00389 5.43465 5.87871C5.37275 5.81672 5.32367 5.74316 5.2902 5.6622C5.25674 5.58125 5.23955 5.4945 5.23961 5.4069C5.23967 5.31931 5.25699 5.23258 5.29056 5.15167C5.32414 5.07077 5.37333 4.99727 5.43531 4.93537C5.5605 4.81037 5.73021 4.74021 5.90712 4.74034C5.99471 4.7404 6.08144 4.75771 6.16235 4.79129C6.24325 4.82487 6.31675 4.87406 6.37865 4.93604ZM8.49998 3.66671C8.67679 3.66671 8.84636 3.73695 8.97138 3.86197C9.09641 3.98699 9.16665 4.15656 9.16665 4.33337C9.16665 4.51019 9.09641 4.67975 8.97138 4.80478C8.84636 4.9298 8.67679 5.00004 8.49998 5.00004C8.32317 5.00004 8.1536 4.9298 8.02858 4.80478C7.90355 4.67975 7.83331 4.51019 7.83331 4.33337C7.83331 4.15656 7.90355 3.98699 8.02858 3.86197C8.1536 3.73695 8.32317 3.66671 8.49998 3.66671Z" fill="white"/>
</svg>
