<svg width="20" height="20" viewBox="0 0 20 20" fill="none" xmlns="http://www.w3.org/2000/svg">
<path d="M12.75 4.62477C12.1166 4.62466 11.5085 4.8732 11.0566 5.31691C10.6046 5.76061 10.3449 6.36402 10.3333 6.99727L10.31 8.30977C10.3086 8.38024 10.2924 8.44962 10.2623 8.51337C10.2322 8.57712 10.189 8.63379 10.1355 8.67967C10.082 8.72554 10.0194 8.75959 9.95181 8.77957C9.88421 8.79955 9.81316 8.80501 9.74331 8.7956L8.44248 8.61894C6.73081 8.3856 5.09081 7.59727 3.51748 6.28644C3.01914 9.04477 3.99248 10.9556 6.33664 12.4298L7.79248 13.3448C7.86165 13.3882 7.91911 13.448 7.95985 13.5188C8.00058 13.5896 8.02334 13.6694 8.02614 13.751C8.02893 13.8327 8.01168 13.9137 7.97589 13.9872C7.94009 14.0606 7.88685 14.1242 7.82081 14.1723L6.49414 15.1414C7.28331 15.1906 8.03248 15.1556 8.65414 15.0323C12.5858 14.2473 15.2 11.2889 15.2 6.40894C15.2 6.0106 14.3566 4.62477 12.75 4.62477ZM8.66664 6.96644C8.68119 6.16314 8.93238 5.38199 9.38877 4.72079C9.84517 4.05958 10.4865 3.5477 11.2324 3.24924C11.9783 2.95078 12.7957 2.879 13.5823 3.04289C14.3688 3.20678 15.0895 3.59906 15.6541 4.1706C16.2466 4.16644 16.7508 4.31644 17.8783 3.6331C17.5991 4.99977 17.4616 5.5931 16.8666 6.40894C16.8666 12.7773 12.9525 15.8739 8.98081 16.6664C6.25748 17.2098 2.29748 16.3173 1.16248 15.1323C1.74081 15.0873 4.09081 14.8348 5.44914 13.8406C4.29998 13.0831 -0.274191 10.3914 2.73164 3.15477C4.14248 4.80227 5.57331 5.92394 7.02331 6.51894C7.98831 6.91477 8.22498 6.90644 8.66748 6.96727L8.66664 6.96644Z" fill="#BABEC4"/>
</svg>
