<svg width="17" height="16" viewBox="0 0 17 16" fill="none" xmlns="http://www.w3.org/2000/svg">
<path d="M13.8333 7.33333H13.1666V4.66667H13.8333V2.66667H15.1666V4.66667H15.8333V7.33333H15.1666V12C15.1666 12.5304 14.9559 13.0391 14.5809 13.4142C14.2058 13.7893 13.6971 14 13.1666 14C12.6362 14 12.1275 13.7893 11.7524 13.4142C11.3774 13.0391 11.1666 12.5304 11.1666 12V9.33333H9.83331V12.6667H10.5V14H1.83331V12.6667H2.49998V2.66667C2.49998 2.48986 2.57022 2.32029 2.69524 2.19526C2.82027 2.07024 2.98984 2 3.16665 2H9.16665C9.34346 2 9.51303 2.07024 9.63805 2.19526C9.76308 2.32029 9.83331 2.48986 9.83331 2.66667V8H11.1666C11.5203 8 11.8594 8.14048 12.1095 8.39052C12.3595 8.64057 12.5 8.97971 12.5 9.33333V12C12.5 12.1768 12.5702 12.3464 12.6952 12.4714C12.8203 12.5964 12.9898 12.6667 13.1666 12.6667C13.3435 12.6667 13.513 12.5964 13.6381 12.4714C13.7631 12.3464 13.8333 12.1768 13.8333 12V7.33333ZM8.49998 12.6667V3.33333H3.83331V12.6667H8.49998ZM6.49998 7.33333H8.49998L5.83331 11.3333V8.66667H3.83331L6.49998 4.66667V7.33333Z" fill="white"/>
</svg>
