<svg width="32" height="32" viewBox="0 0 32 32" fill="none" xmlns="http://www.w3.org/2000/svg">
<g clip-path="url(#clip0_32_183)">
<path d="M31.9542 12.3286C31.8439 11.9891 31.5506 11.7418 31.1974 11.6905L21.2773 10.2489L16.8408 1.25974C16.6829 0.939682 16.357 0.737183 16.0001 0.737183C15.6433 0.737183 15.3174 0.939682 15.1595 1.25974L10.7227 10.2489L0.802801 11.6905C0.449739 11.7418 0.15624 11.9891 0.0460526 12.3285C-0.0642597 12.668 0.0277402 13.0405 0.28324 13.2895L7.46123 20.2867L5.76698 30.1668C5.70667 30.5186 5.85129 30.874 6.13998 31.0838C6.42866 31.2935 6.81129 31.3213 7.12729 31.1551L16.0001 26.4903L24.8726 31.1551C25.0098 31.2272 25.1596 31.2628 25.3088 31.2628C25.5032 31.2628 25.6967 31.2024 25.8599 31.0838C26.1486 30.874 26.2932 30.5185 26.2329 30.1668L24.5382 20.2867L31.7169 13.2895C31.9725 13.0405 32.0645 12.6679 31.9542 12.3286Z" fill="#FED42D"/>
<path d="M31.9542 12.3286C31.8439 11.9891 31.5506 11.7418 31.1974 11.6905L21.2773 10.2489L16.8408 1.25974C16.6829 0.939682 16.357 0.737183 16.0002 0.737183V26.4903L24.8727 31.1551C25.0099 31.2273 25.1596 31.2628 25.3089 31.2628C25.5033 31.2628 25.6968 31.2025 25.86 31.0839C26.1487 30.8741 26.2933 30.5186 26.233 30.1669L24.5382 20.2867L31.7169 13.2895C31.9725 13.0405 32.0645 12.6679 31.9542 12.3286Z" fill="#FCBF29"/>
</g>
<defs>
<clipPath id="clip0_32_183">
<rect width="32" height="32" fill="white"/>
</clipPath>
</defs>
</svg>
