<svg width="948" height="536" viewBox="0 0 948 536" fill="none" xmlns="http://www.w3.org/2000/svg">
<path d="M355.074 110.341C344.214 70.5195 292.633 37.9334 257.912 21.5072C215.62 1.49949 156.334 -7.3276 113.557 16.2635C84.2462 32.4283 58.0513 57.2855 36.907 82.8889C21.0717 102.064 -2.6217 133.444 3.44009 161.235C11.2425 197.006 60.8251 211.41 88.7268 220.766C163.984 246.002 242.552 260.946 318.523 283.999C352.073 294.18 403.555 301.584 418.152 339.366C422.737 351.233 429.174 373.655 425.401 386.405C416.875 415.217 362.487 427.961 341.656 434.986C289.401 452.607 235.636 466.495 180.799 473.079C169.082 474.486 157.273 475.058 145.482 475.547C135.515 475.96 111.107 479.993 115.87 471.229C126.155 452.305 180.929 434.535 197.764 426.812C250.984 402.397 306.53 383.932 362.785 367.897C409.595 354.555 456.866 342.749 505.29 337.052C529.503 334.204 561.951 330.079 586.104 338.286C619.22 349.539 617.13 401.924 602.76 426.195C564.835 490.252 486.863 523.056 415.839 531.376C380.614 535.503 342.689 534.804 308.035 526.75C304.314 525.885 270.751 522.098 281.354 504.233C294.382 482.282 352.967 452.873 364.945 446.398C440.24 405.698 518.941 371.323 597.825 338.286C638.552 321.229 679.93 303.573 722.439 291.247C781.302 274.181 855.896 290.171 903.5 328.57C934.842 353.851 956.64 406.185 941.593 446.09C937.691 456.44 929.888 465.676 918.614 465.676" stroke="#ECFFDC" stroke-width="3" stroke-linecap="round"/>
</svg>
