<svg width="153" height="24" viewBox="0 0 153 24" fill="none" xmlns="http://www.w3.org/2000/svg">
<g clip-path="url(#clip0_32_280)">
<path d="M141.425 15.4042L145.522 17.6973L144.606 13.0928L148.053 9.90452L143.391 9.35176L141.425 5.0888V15.4042ZM141.425 17.6153L134.621 21.4238L136.14 13.7758L130.415 8.48161L138.158 7.56322L141.425 0.482422L144.691 7.56322L152.435 8.48161L146.709 13.7758L148.229 21.4238L141.425 17.6153Z" fill="#F1B90B"/>
</g>
<g clip-path="url(#clip1_32_280)">
<path d="M11.7707 17.6153L4.96678 21.4238L6.48616 13.7758L0.760742 8.48161L8.50429 7.56322L11.7707 0.482422L15.0371 7.56322L22.7807 8.48161L17.0553 13.7758L18.5747 21.4238L11.7707 17.6153Z" fill="#F1B90B"/>
</g>
<g clip-path="url(#clip2_32_280)">
<path d="M44.1845 17.6153L37.3806 21.4238L38.9 13.7758L33.1746 8.48161L40.9181 7.56322L44.1845 0.482422L47.451 7.56322L55.1945 8.48161L49.4691 13.7758L50.9885 21.4238L44.1845 17.6153Z" fill="#F1B90B"/>
</g>
<g clip-path="url(#clip3_32_280)">
<path d="M76.5976 17.6153L69.7937 21.4238L71.3131 13.7758L65.5876 8.48161L73.3312 7.56322L76.5976 0.482422L79.8641 7.56322L87.6076 8.48161L81.8822 13.7758L83.4016 21.4238L76.5976 17.6153Z" fill="#F1B90B"/>
</g>
<g clip-path="url(#clip4_32_280)">
<path d="M109.011 17.6153L102.207 21.4238L103.727 13.7758L98.0012 8.48161L105.745 7.56322L109.011 0.482422L112.278 7.56322L120.021 8.48161L114.296 13.7758L115.815 21.4238L109.011 17.6153Z" fill="#F1B90B"/>
</g>
<defs>
<clipPath id="clip0_32_280">
<rect width="23.1525" height="23.1525" fill="white" transform="translate(129.848)"/>
</clipPath>
<clipPath id="clip1_32_280">
<rect width="23.1525" height="23.1525" fill="white" transform="translate(0.194336)"/>
</clipPath>
<clipPath id="clip2_32_280">
<rect width="23.1525" height="23.1525" fill="white" transform="translate(32.6082)"/>
</clipPath>
<clipPath id="clip3_32_280">
<rect width="23.1525" height="23.1525" fill="white" transform="translate(65.0212)"/>
</clipPath>
<clipPath id="clip4_32_280">
<rect width="23.1525" height="23.1525" fill="white" transform="translate(97.4348)"/>
</clipPath>
</defs>
</svg>
