<svg width="41" height="41" viewBox="0 0 41 41" fill="none" xmlns="http://www.w3.org/2000/svg">
<g clip-path="url(#clip0_32_215)">
<path d="M38.3468 13.2352H31.5636C30.3931 13.2352 29.4407 14.188 29.4407 15.3592V23.1666H26.9036C27.0446 22.654 27.0968 22.0494 27.0625 21.3458V21.3457C27.0075 18.3723 26.4679 15.8664 25.4588 13.8975C24.6752 12.3688 23.7607 11.4523 22.9761 10.9044C23.8971 9.9575 24.4296 8.61039 24.4296 7.05671C24.4296 4.26132 22.1996 1.98718 19.4588 1.98718C16.7179 1.98718 14.488 4.26132 14.488 7.05671C14.488 7.38039 14.7504 7.64265 15.0739 7.64265H15.4721C15.4354 7.86375 15.4159 8.08906 15.4159 8.31789C15.4159 10.2879 16.8236 11.9344 18.6846 12.3034C18.4896 13.0277 18.3926 13.8819 18.393 14.8522L16.9316 16.1091L13.3757 16.3967L9.27395 15.0408C8.89801 14.9158 8.47191 14.7745 8.10223 15.0411C7.73793 15.304 7.73793 15.7642 7.73793 15.9154V18.965C7.73793 19.2887 8.00027 19.5509 8.32387 19.5509H9.02145L7.95152 23.2481C7.8616 23.5589 8.04066 23.8839 8.35152 23.9738C8.66254 24.0642 8.98731 23.8847 9.07731 23.5739L10.2415 19.5509H11.9073C9.83543 25.8691 11.0176 30.0864 12.8347 34.3544H11.7814L7.39449 29.4493L8.32215 26.2446C8.41215 25.9337 8.23309 25.6088 7.92223 25.5189C7.61137 25.429 7.28645 25.608 7.19645 25.9188L6.30918 28.9842C3.56496 28.9384 1.11027 30.8305 0.484727 33.5526C0.412306 33.8679 0.609102 34.1823 0.924337 34.2548L1.75613 34.4462C1.54363 36.6534 2.99715 38.7358 5.21387 39.246C5.55051 39.3236 5.89004 39.3619 6.22723 39.3619C7.05879 39.3619 7.87574 39.1287 8.59832 38.6759C9.44637 38.1444 10.0782 37.3632 10.4202 36.4399L11.0765 36.5909C11.2721 36.6362 11.4575 36.6591 11.6429 36.5593C11.8153 36.4665 11.9299 36.2989 11.9729 36.1098C12.0141 35.918 12.0455 35.723 12.0673 35.5263H24.3218C24.7137 37.9628 26.7868 39.7994 29.2626 39.7994C31.7385 39.7994 33.8116 37.9628 34.2035 35.5263H34.6507C34.6507 35.5263 34.7394 35.5273 34.7596 35.5273C34.9272 35.5273 35.1693 35.5087 35.368 35.3066C35.4675 35.2054 35.5842 35.0244 35.5752 34.7368C35.5587 34.1866 35.4761 33.6549 35.3352 33.1496C35.8019 30.3162 35.3529 28.5905 34.6871 27.2399C35.108 26.9641 35.3871 26.4887 35.3871 25.9487V24.3384H38.3467C39.5172 24.3384 40.4696 23.3855 40.4696 22.2143V15.3591C40.4697 14.188 39.5175 13.2352 38.3468 13.2352V13.2352ZM7.97606 37.683C7.22598 38.1531 6.33848 38.3026 5.47691 38.1042H5.47684C3.89106 37.7392 2.83309 36.2851 2.9102 34.7127L9.2659 36.1755C9.00293 36.7947 8.55801 37.3184 7.97606 37.683V37.683ZM10.9079 35.3498L1.79348 33.2524C2.49684 31.3263 4.38965 30.0513 6.45863 30.161L10.9236 35.1533C10.9197 35.2191 10.9145 35.2846 10.9079 35.3498ZM19.7583 25.1392C19.5882 25.5878 19.5882 26.1409 19.5882 26.9064V29.1175H17.4427V26.0841C17.4427 22.6545 19.3144 22.0434 20.1544 21.9425H25.8989C25.8757 22.7209 25.7001 23.2741 25.3667 23.6253C24.9781 24.0345 24.3132 24.2339 23.3338 24.2348L21.2306 24.237C20.4806 24.2371 19.9853 24.5405 19.7583 25.1392V25.1392ZM19.5882 30.2893V31.6884C19.5829 31.6884 19.5775 31.6884 19.5718 31.6884H15.4099C15.4567 31.2544 15.5918 30.9187 15.8138 30.6863C16.1439 30.3409 16.6089 30.2893 16.8568 30.2893H19.5882ZM25.873 20.7707H20.5443C20.3304 20.0973 20.1396 19.36 19.9827 18.6022L21.6028 17.5506C22.4871 16.9763 22.9472 16.1648 22.865 15.3241C22.7922 14.5789 22.2856 13.9132 21.5743 13.6283C20.9248 13.3681 20.2257 13.4498 19.6078 13.8449C19.6587 13.2844 19.7536 12.7841 19.8907 12.3594C20.1405 12.3337 20.3886 12.2848 20.6321 12.2132C21.128 12.098 21.5862 11.9145 21.9999 11.6712C23.1284 12.3454 25.6104 14.5323 25.873 20.7707V20.7707ZM15.7028 6.47085C15.9791 4.59867 17.5582 3.15914 19.4588 3.15914C21.5535 3.15914 23.2577 4.90765 23.2577 7.05679C23.2577 8.80476 22.4195 10.2136 21.0679 10.8336V7.75054C21.0679 7.21671 20.8636 6.56187 19.8907 6.47328C19.873 6.47164 19.8553 6.47085 19.8375 6.47085H15.7028ZM16.5879 8.31796C16.5879 8.08671 16.6142 7.86085 16.666 7.64273H19.8088C19.845 7.64664 19.8714 7.65085 19.8903 7.65468C19.8933 7.6764 19.896 7.70765 19.896 7.75054V11.1784C19.7564 11.1989 19.6159 11.2093 19.4755 11.2094C19.4742 11.2094 19.4729 11.2094 19.4716 11.2094C17.8813 11.2079 16.5879 9.9114 16.5879 8.31796ZM15.8282 17.3742L17.2161 17.2619C17.3397 17.252 17.457 17.203 17.5511 17.1222L20.0558 14.9679L20.0562 14.9675C20.2984 14.7588 20.5569 14.6518 20.8086 14.6518C20.9207 14.6518 21.0314 14.673 21.1386 14.716C21.4482 14.84 21.6681 15.1234 21.6989 15.438C21.7375 15.8338 21.4768 16.2351 20.9648 16.5676L18.1738 18.3791H15.8284V17.3742H15.8282ZM13.352 17.5745L14.6564 17.4691V18.3793H13.1407C12.9442 18.3793 12.8963 18.216 12.8907 18.0791C12.8875 18.0014 12.8948 17.612 13.352 17.5745V17.5745ZM11.9652 17.17C11.7887 17.4594 11.7063 17.7979 11.7198 18.127C11.7233 18.2123 11.7342 18.2944 11.7493 18.3744C11.7493 18.376 11.7484 18.3777 11.7487 18.3792H8.90996V16.1548L11.9675 17.1655C11.9665 17.167 11.9661 17.1685 11.9652 17.17V17.17ZM13.1439 19.5511H18.3471C18.4604 19.5511 18.5712 19.5183 18.6661 19.4566L18.9314 19.2844C19.0589 19.8484 19.2043 20.3971 19.3625 20.9154C18.1675 21.2681 16.2707 22.408 16.2707 26.084V29.1762C15.8597 29.2592 15.3733 29.4509 14.9665 29.8766C14.5377 30.3254 14.2928 30.9334 14.234 31.6883H13.052C11.8609 28.2556 11.4079 24.6028 13.1439 19.5511V19.5511ZM14.1097 34.3525C13.8932 33.8544 13.6844 33.3583 13.4879 32.8602H19.5718C20.3603 32.8602 20.76 32.5012 20.76 31.7934V29.7034V27.4923H25.385C25.7086 27.4923 25.9709 27.23 25.9709 26.9063C25.9709 26.5827 25.7086 26.3204 25.385 26.3204H20.7643C20.7718 25.9876 20.7931 25.7154 20.8541 25.5546C20.8837 25.4764 20.9093 25.4089 21.2311 25.4089L23.3349 25.4067C24.6525 25.4055 25.595 25.0867 26.2165 24.4322C26.2453 24.4019 26.2725 24.3701 26.2997 24.3384H30.0268H34.2154V25.9488C34.2154 26.1502 34.0457 26.3204 33.8447 26.3204H28.0115C27.6879 26.3204 27.4256 26.5827 27.4256 26.9063C27.4256 27.23 27.6879 27.4923 28.0115 27.4923H33.5004C33.9636 28.3519 34.3801 29.4215 34.3554 31.1114C33.1961 29.5012 31.3195 28.4658 29.1896 28.4658C27.4792 28.4658 25.8742 29.1367 24.6702 30.3551C23.6018 31.4361 22.9602 32.8391 22.8282 34.3544L14.1097 34.3525ZM29.2627 38.6277C27.431 38.6277 25.8861 37.308 25.5124 35.5265H33.013C32.6392 37.3078 31.0943 38.6277 29.2627 38.6277V38.6277ZM33.6786 34.3546H24.8469H24.0051C24.2928 31.7052 26.5081 29.6377 29.1896 29.6377C31.5439 29.6377 33.5211 31.1901 34.1758 33.3633C34.1779 33.3702 34.18 33.377 34.1824 33.3838C34.275 33.6956 34.3404 34.0202 34.3757 34.3546H33.6786ZM39.2979 22.2144C39.2979 22.7394 38.8712 23.1666 38.3468 23.1666H30.6126V20.1407H39.2979V22.2144ZM39.2979 18.9688H30.6126V17.7227H39.2979V18.9688ZM39.2979 16.5508H30.6126V15.3592C30.6126 14.8341 31.0393 14.407 31.5636 14.407H38.3468C38.8712 14.407 39.2979 14.8342 39.2979 15.3592V16.5508Z" fill="#09A66D"/>
</g>
<defs>
<clipPath id="clip0_32_215">
<rect width="40" height="40" fill="white" transform="translate(0.469727 0.893433)"/>
</clipPath>
</defs>
</svg>
