<svg width="32" height="32" viewBox="0 0 32 32" fill="none" xmlns="http://www.w3.org/2000/svg">
<path d="M22.4722 10H23.9217C25.1292 10 26.1392 9.1395 26.3712 8H24.9217C23.7147 8 22.7047 8.8605 22.4722 10Z" fill="#09A66D"/>
<path d="M11 5.5C11.0495 5.5 11.0975 5.506 11.147 5.5075L11.498 1.9975C11.5 1.703 11.297 1.5 11.0475 1.5H10.953C10.703 1.5 10.5 1.703 10.5 1.9525L10.8535 5.5075C10.9025 5.506 10.9505 5.5 11 5.5Z" fill="#09A66D"/>
<path d="M7 16C7 15.8295 7.0175 15.663 7.045 15.5H6V15.8425C6.3745 16.021 6.713 16.262 7 16.555V16Z" fill="#09A66D"/>
<path d="M6.59513 3.77806L8.30563 6.29606C8.43963 6.20956 8.57813 6.12956 8.72063 6.05606L7.69213 3.22756C7.68463 3.20756 7.67713 3.18906 7.66763 3.17106C7.59713 3.03006 7.48513 2.93256 7.34563 2.88656C7.20613 2.84006 7.05763 2.85106 6.92713 2.91656L6.80213 2.97906C6.53163 3.11406 6.42163 3.44406 6.55713 3.71456C6.56813 3.73456 6.58113 3.75706 6.59513 3.77806Z" fill="#09A66D"/>
<path d="M8.691 14.5H14.26L14.916 11.352C14.9715 11.084 15 10.8095 15 10.536C15 8.2945 13.2055 6.5 11 6.5C8.7945 6.5 7 8.2945 7 10.5C7 10.8095 7.0285 11.084 7.084 11.352L7.662 14.125C8.212 13.44 9.055 13 10 13V14C9.4975 14 9.043 14.1925 8.691 14.5ZM12.5 8.5H13.5V9.5H12.5V8.5ZM12.5 10.5H13.5V11.5H12.5V10.5ZM12.5 12.5H13.5V13.5H12.5V12.5Z" fill="#09A66D"/>
<path d="M5.50022 18.5H6.94972C6.71722 17.3605 5.70772 16.5 4.50022 16.5H3.05072C3.28272 17.6395 4.29272 18.5 5.50022 18.5Z" fill="#09A66D"/>
<path d="M15.4055 3.77655C15.4185 3.75655 15.432 3.73455 15.443 3.71205C15.5775 3.44355 15.4675 3.11355 15.197 2.97855L15.072 2.91605C14.941 2.85105 14.7935 2.83955 14.6535 2.88605C14.5145 2.93255 14.402 3.03005 14.3365 3.16105C14.3225 3.18905 14.3145 3.20755 14.3075 3.22655L13.279 6.05505C13.4215 6.12855 13.56 6.20855 13.6945 6.29505L15.4055 3.77655Z" fill="#09A66D"/>
<path d="M14.4921 24.5H28.5001V21.5H13.8261C14.2676 22.4285 14.4916 23.449 14.4921 24.5ZM26.5001 22.5H27.5001V23.5H26.5001V22.5Z" fill="#09A66D"/>
<path d="M13.2316 28.5H27.0001C27.8271 28.5 28.5001 27.827 28.5001 27V25.5H14.4281C14.2686 26.6015 13.8476 27.623 13.2316 28.5ZM26.5001 26.5H27.5001V27.5H26.5001V26.5Z" fill="#09A66D"/>
<path d="M8.071 15.5C8.029 15.661 8 15.8265 8 16V16.5H28.5H29H30.5V15.5H8.071Z" fill="#09A66D"/>
<path d="M8 18.9335C8.1005 18.909 8.201 18.8835 8.2925 18.844C9.8175 18.1915 11.5925 18.5835 12.7055 19.821C12.8995 20.0365 13.0735 20.2655 13.237 20.4995H28.5V17.4995H8V18.9335ZM26.5 18.5H27.5V19.5H26.5V18.5Z" fill="#09A66D"/>
<path d="M11.9625 20.4899C11.1485 19.5849 9.801 19.2854 8.686 19.7634C8.4715 19.8549 8.2395 19.9179 8 19.9564V20.8979C8.4965 20.7129 8.968 20.3234 9.147 20.1454L9.8535 20.8534C9.7365 20.9709 8.6735 21.9999 7.5 21.9999C6.3265 21.9999 5.2635 20.9709 5.1465 20.8534L5.853 20.1454C6.032 20.3229 6.5035 20.7124 7 20.8979V19.4999H5.5C5.3305 19.4999 5.1655 19.4839 5.0025 19.4604C4.3015 19.5104 3.5605 19.9024 3.0145 20.5154C2.038 21.6139 1.5 23.0284 1.5 24.4999C1.5 26.1464 2.154 27.6819 3.3405 28.8239C4.527 29.9654 6.08 30.5549 7.739 30.4954C10.8295 30.3759 13.3575 27.8619 13.4945 24.7724C13.564 23.1869 13.02 21.6659 11.9625 20.4899ZM7.5 29.4999C4.743 29.4999 2.5 27.2569 2.5 24.4999H3.5C3.5 26.7054 5.2945 28.4999 7.5 28.4999V29.4999Z" fill="#09A66D"/>
<path d="M26.3854 14.5C26.1464 13.571 25.6899 12.7115 25.0409 11.99C24.2264 11.085 22.8789 10.7865 21.7639 11.2635C21.6789 11.3 21.5899 11.3305 21.4999 11.359V7C21.4999 6.173 22.1729 5.5 22.9999 5.5H23.4999V4.5H22.9999C21.6214 4.5 20.4999 5.6215 20.4999 7V11.359C20.4099 11.3305 20.3209 11.3 20.2359 11.2635C19.1214 10.7865 17.7734 11.085 16.9589 11.99C16.3099 12.7115 15.8534 13.5705 15.6144 14.5H20.9999H26.3854ZM18.7534 12.069C18.7609 12.073 19.5179 12.5 20.9999 12.5C22.4819 12.5 23.2389 12.073 23.2464 12.069L23.7569 12.9285C23.7184 12.952 22.7844 13.5 20.9999 13.5C19.2154 13.5 18.2814 12.952 18.2424 12.9285L18.7534 12.069Z" fill="#09A66D"/>
</svg>
