<svg width="41" height="41" viewBox="0 0 41 41" fill="none" xmlns="http://www.w3.org/2000/svg">
<g clip-path="url(#clip0_32_249)">
<path d="M15.1557 28.7151H25.5469C25.8705 28.7151 26.1328 28.4527 26.1328 28.1291C26.1328 27.8055 25.8705 27.5432 25.5469 27.5432H15.1557C14.8321 27.5432 14.5697 27.8055 14.5697 28.1291C14.5697 28.4527 14.8321 28.7151 15.1557 28.7151ZM16.9917 15.2727H23.9481C24.4787 15.2727 24.9386 14.9316 25.0926 14.424L26.5526 9.61351C26.6638 9.24734 26.5968 8.86101 26.3688 8.55367C26.1409 8.24632 25.7908 8.07007 25.4081 8.07007H24.8884L23.8264 5.41523C23.5823 4.80398 22.9993 4.40906 22.341 4.40906H18.5988C17.9406 4.40906 17.3576 4.80398 17.1134 5.41492L16.0514 8.06999H15.5317C15.149 8.06999 14.7989 8.24625 14.5709 8.55367C14.3429 8.86109 14.276 9.24734 14.3871 9.61351L15.8472 14.424C16.0012 14.9316 16.4612 15.2727 16.9917 15.2727ZM15.5122 9.25164C15.5299 9.22773 18.6993 9.2496 18.7219 9.24187C19.0455 9.24187 19.3079 8.97953 19.3079 8.65593C19.3079 8.33234 19.0455 8.06999 18.7219 8.06999H17.3135L18.2015 5.85C18.2668 5.68656 18.4227 5.58093 18.5988 5.58093H22.341C22.5171 5.58093 22.673 5.68656 22.7383 5.85015L23.6263 8.06999H21.4562C21.1326 8.06999 20.8703 8.33234 20.8703 8.65593C20.8703 8.97953 21.1326 9.24187 21.4562 9.24187C21.4759 9.24187 25.4126 9.2314 25.4276 9.25164C25.445 9.27515 23.9712 14.059 23.9712 14.0837C23.9712 14.1357 16.9716 14.0939 16.9685 14.0837C16.9611 14.0591 15.4948 9.27507 15.5122 9.25164ZM15.1557 34.5604C14.8321 34.5604 14.5697 34.8227 14.5697 35.1463C14.5697 35.4699 14.8321 35.7323 15.1557 35.7323H25.5469C25.8705 35.7323 26.1328 35.4699 26.1328 35.1463C26.1328 34.8227 25.8705 34.5604 25.5469 34.5604H15.1557ZM30.8203 32.8026C30.8203 32.479 30.558 32.2166 30.2344 32.2166H15.1557C14.8321 32.2166 14.5697 32.479 14.5697 32.8026C14.5697 33.1262 14.8321 33.3885 15.1557 33.3885H30.2344C30.558 33.3885 30.8203 33.1262 30.8203 32.8026ZM33.75 26.5423C34.0737 26.5423 34.3359 26.28 34.3359 25.9564V3.82312C34.3359 2.20765 33.0217 0.893433 31.4062 0.893433H9.53357C7.9181 0.893433 6.60388 2.20765 6.60388 3.82312V37.9637C6.60388 39.5792 7.9181 40.8934 9.53357 40.8934H31.4063C33.0218 40.8934 34.336 39.5792 34.336 37.9637V28.6908C34.336 28.3672 34.0737 28.1048 33.7501 28.1048C33.4264 28.1048 33.1641 28.3672 33.1641 28.6908V37.9637C33.1641 38.933 32.3755 39.7216 31.4063 39.7216H9.53357C8.56427 39.7216 7.77576 38.933 7.77576 37.9637V3.82312C7.77576 2.85382 8.56427 2.06531 9.53357 2.06531H31.4063C32.3755 2.06531 33.1641 2.85382 33.1641 3.82312V25.9564C33.164 26.28 33.4264 26.5423 33.75 26.5423ZM12.8393 29.1644C12.5508 29.168 12.2482 29.1709 11.9708 29.1723C12.1679 28.9048 12.4171 28.5597 12.7278 28.1157C13.0003 27.7264 13.1931 27.374 13.2433 27.0078C13.2515 26.9478 13.2673 26.8401 13.2673 26.7828C13.2673 25.9098 12.5571 25.1995 11.684 25.1995C10.9292 25.1995 10.2758 25.7366 10.1304 26.4766C10.0681 26.7941 10.2749 27.1021 10.5925 27.1644C10.9101 27.2268 11.218 27.02 11.2804 26.7024C11.318 26.5105 11.4878 26.3714 11.684 26.3714C11.9011 26.3714 12.0794 26.5403 12.0944 26.7536C12.1093 26.9641 12.0019 27.1092 11.7677 27.4437C11.1521 28.3234 10.7848 28.8042 10.5876 29.0625C10.2431 29.5135 10.0785 30.1013 10.6751 30.3002C10.7521 30.3258 12.2988 30.3433 12.854 30.3362C13.1776 30.3322 13.4365 30.0666 13.4325 29.743C13.4284 29.4194 13.1601 29.1582 12.8393 29.1644ZM30.2344 25.1994H15.1557C14.8321 25.1994 14.5697 25.4618 14.5697 25.7854C14.5697 26.109 14.8321 26.3713 15.1557 26.3713H30.2344C30.558 26.3713 30.8203 26.109 30.8203 25.7854C30.8203 25.4618 30.558 25.1994 30.2344 25.1994ZM11.776 32.2166C11.0211 32.2166 10.3678 32.7537 10.2224 33.4937C10.1601 33.8112 10.3669 34.1192 10.6844 34.1816C11.0018 34.2438 11.3099 34.0371 11.3723 33.7195C11.41 33.5277 11.5797 33.3885 11.776 33.3885C12.0029 33.3885 12.1874 33.573 12.1874 33.7999C12.1874 34.0268 12.0029 34.2113 11.776 34.2113C11.4524 34.2113 11.1901 34.4737 11.1901 34.7973C11.1901 35.1209 11.4524 35.3832 11.776 35.3832C12.0029 35.3832 12.1874 35.5677 12.1874 35.7946C12.1874 36.0215 12.0029 36.206 11.776 36.206C11.5719 36.206 11.3967 36.0541 11.3686 35.8524C11.3659 35.8335 11.3646 35.8141 11.3646 35.7946C11.3646 35.471 11.1022 35.2087 10.7786 35.2087C10.4551 35.2087 10.1927 35.471 10.1927 35.7946C10.1927 36.6552 10.9069 37.3779 11.776 37.3779C12.649 37.3779 13.3593 36.6677 13.3593 35.7946C13.3593 35.4168 13.2258 35.0698 13.0041 34.7973C13.2258 34.5248 13.3593 34.1777 13.3593 33.7999C13.3593 32.9269 12.649 32.2166 11.776 32.2166ZM11.776 23.2823C12.0996 23.2823 12.3619 23.02 12.3619 22.6964V18.7987C12.3619 18.4752 12.0996 18.2128 11.776 18.2128H10.9429C10.6193 18.2128 10.3569 18.4752 10.3569 18.7987C10.3569 19.1223 10.6193 19.3847 10.9429 19.3847H11.1901V22.6964C11.1901 23.02 11.4524 23.2823 11.776 23.2823ZM15.1557 21.7284H25.5469C25.8705 21.7284 26.1328 21.4661 26.1328 21.1425C26.1328 20.8189 25.8705 20.5566 25.5469 20.5566H15.1557C14.8321 20.5566 14.5697 20.8189 14.5697 21.1425C14.5697 21.4661 14.8321 21.7284 15.1557 21.7284ZM30.2344 18.2128H15.1557C14.8321 18.2128 14.5697 18.4752 14.5697 18.7987C14.5697 19.1223 14.8321 19.3847 15.1557 19.3847H30.2344C30.558 19.3847 30.8203 19.1223 30.8203 18.7987C30.8203 18.4752 30.558 18.2128 30.2344 18.2128Z" fill="#09A66D"/>
</g>
<defs>
<clipPath id="clip0_32_249">
<rect width="40" height="40" fill="white" transform="translate(0.469727 0.893433)"/>
</clipPath>
</defs>
</svg>
