<svg width="41" height="39" viewBox="0 0 41 39" fill="none" xmlns="http://www.w3.org/2000/svg">
<path d="M38.3468 12.2352H31.5636C30.3931 12.2352 29.4407 13.188 29.4407 14.3592V22.1666H26.9036C27.0446 21.654 27.0968 21.0494 27.0625 20.3458V20.3457C27.0075 17.3723 26.4679 14.8664 25.4588 12.8975C24.6752 11.3688 23.7607 10.4523 22.9761 9.90445C23.8971 8.9575 24.4296 7.61039 24.4296 6.05671C24.4296 3.26132 22.1996 0.987183 19.4588 0.987183C16.7179 0.987183 14.488 3.26132 14.488 6.05671C14.488 6.38039 14.7504 6.64265 15.0739 6.64265H15.4721C15.4354 6.86375 15.4159 7.08906 15.4159 7.31789C15.4159 9.28789 16.8236 10.9344 18.6847 11.3034C18.4896 12.0277 18.3926 12.8819 18.393 13.8522L16.9316 15.1091L13.3757 15.3967L9.27395 14.0408C8.89801 13.9158 8.47191 13.7745 8.10223 14.0411C7.73793 14.304 7.73793 14.7642 7.73793 14.9154V17.965C7.73793 18.2887 8.00027 18.5509 8.32387 18.5509H9.02145L7.95152 22.2481C7.8616 22.5589 8.04066 22.8839 8.35152 22.9738C8.66254 23.0642 8.98731 22.8847 9.07731 22.5739L10.2415 18.5509H11.9073C9.83543 24.8691 11.0176 29.0864 12.8347 33.3544H11.7814L7.39449 28.4493L8.32215 25.2446C8.41215 24.9337 8.23309 24.6088 7.92223 24.5189C7.61137 24.429 7.28645 24.608 7.19645 24.9188L6.30918 27.9842C3.56496 27.9384 1.11027 29.8305 0.484727 32.5526C0.412306 32.8679 0.609102 33.1823 0.924337 33.2548L1.75613 33.4462C1.54363 35.6534 2.99715 37.7358 5.21387 38.246C5.55051 38.3236 5.89004 38.3619 6.22723 38.3619C7.05879 38.3619 7.87574 38.1287 8.59832 37.6759C9.44637 37.1444 10.0782 36.3632 10.4202 35.4399L11.0765 35.5909C11.2721 35.6362 11.4575 35.6591 11.6429 35.5593C11.8153 35.4665 11.9299 35.2989 11.9729 35.1098C12.0141 34.918 12.0455 34.723 12.0673 34.5263H24.3218C24.7137 36.9628 26.7868 38.7994 29.2626 38.7994C31.7385 38.7994 33.8116 36.9628 34.2035 34.5263H34.6507C34.6507 34.5263 34.7394 34.5273 34.7597 34.5273C34.9272 34.5273 35.1693 34.5087 35.368 34.3066C35.4675 34.2054 35.5842 34.0244 35.5752 33.7368C35.5587 33.1866 35.4761 32.6549 35.3352 32.1496C35.8019 29.3162 35.3529 27.5905 34.6871 26.2399C35.108 25.9641 35.3871 25.4887 35.3871 24.9487V23.3384H38.3467C39.5172 23.3384 40.4696 22.3855 40.4696 21.2143V14.3591C40.4697 13.188 39.5175 12.2352 38.3468 12.2352ZM7.97606 36.683C7.22598 37.1531 6.33848 37.3026 5.47691 37.1042H5.47684C3.89106 36.7392 2.83309 35.2851 2.9102 33.7127L9.2659 35.1755C9.00293 35.7947 8.55801 36.3184 7.97606 36.683ZM10.9079 34.3498L1.79348 32.2524C2.49684 30.3263 4.38965 29.0513 6.45863 29.161L10.9236 34.1533C10.9197 34.2191 10.9145 34.2846 10.9079 34.3498ZM19.7583 24.1392C19.5882 24.5878 19.5882 25.1409 19.5882 25.9064V28.1175H17.4427V25.0841C17.4427 21.6545 19.3144 21.0434 20.1544 20.9425H25.8989C25.8757 21.7209 25.7001 22.2741 25.3667 22.6253C24.9781 23.0345 24.3132 23.2339 23.3338 23.2348L21.2306 23.237C20.4806 23.2371 19.9853 23.5405 19.7583 24.1392ZM19.5882 29.2893V30.6884C19.5829 30.6884 19.5775 30.6884 19.5718 30.6884H15.4099C15.4567 30.2544 15.5918 29.9187 15.8138 29.6863C16.1439 29.3409 16.6089 29.2893 16.8568 29.2893H19.5882ZM25.873 19.7707H20.5443C20.3304 19.0973 20.1396 18.36 19.9827 17.6022L21.6028 16.5506C22.4871 15.9763 22.9472 15.1648 22.865 14.3241C22.7922 13.5789 22.2856 12.9132 21.5743 12.6283C20.9248 12.3681 20.2257 12.4498 19.6078 12.8449C19.6587 12.2844 19.7536 11.7841 19.8907 11.3594C20.1405 11.3337 20.3886 11.2848 20.6321 11.2132C21.128 11.098 21.5862 10.9145 21.9999 10.6712C23.1284 11.3454 25.6104 13.5323 25.873 19.7707ZM15.7028 5.47085C15.9791 3.59867 17.5582 2.15914 19.4588 2.15914C21.5535 2.15914 23.2577 3.90765 23.2577 6.05679C23.2577 7.80476 22.4195 9.21359 21.0679 9.83359V6.75054C21.0679 6.21671 20.8636 5.56187 19.8907 5.47328C19.873 5.47164 19.8553 5.47085 19.8375 5.47085H15.7028ZM16.5879 7.31796C16.5879 7.08671 16.6142 6.86085 16.666 6.64273H19.8088C19.845 6.64664 19.8714 6.65085 19.8903 6.65468C19.8933 6.6764 19.896 6.70765 19.896 6.75054V10.1784C19.7564 10.1989 19.6159 10.2093 19.4755 10.2094C19.4742 10.2094 19.4729 10.2094 19.4716 10.2094C17.8813 10.2079 16.5879 8.9114 16.5879 7.31796ZM15.8282 16.3742L17.2161 16.2619C17.3397 16.252 17.457 16.203 17.5511 16.1222L20.0558 13.9679L20.0562 13.9675C20.2984 13.7588 20.5569 13.6518 20.8086 13.6518C20.9207 13.6518 21.0314 13.673 21.1386 13.716C21.4482 13.84 21.6681 14.1234 21.6989 14.438C21.7375 14.8338 21.4768 15.2351 20.9648 15.5676L18.1738 17.3791H15.8284V16.3742H15.8282ZM13.352 16.5745L14.6564 16.4691V17.3793H13.1407C12.9442 17.3793 12.8963 17.216 12.8907 17.0791C12.8875 17.0014 12.8948 16.612 13.352 16.5745ZM11.9652 16.17C11.7887 16.4594 11.7063 16.7979 11.7198 17.127C11.7233 17.2123 11.7342 17.2944 11.7493 17.3744C11.7493 17.376 11.7484 17.3777 11.7487 17.3792H8.90996V15.1548L11.9675 16.1655C11.9665 16.167 11.9661 16.1685 11.9652 16.17ZM13.1439 18.5511H18.3471C18.4604 18.5511 18.5712 18.5183 18.6661 18.4566L18.9314 18.2844C19.0589 18.8484 19.2043 19.3971 19.3625 19.9154C18.1675 20.2681 16.2707 21.408 16.2707 25.084V28.1762C15.8596 28.2592 15.3733 28.4509 14.9665 28.8766C14.5377 29.3254 14.2928 29.9334 14.234 30.6883H13.052C11.8609 27.2556 11.4079 23.6028 13.1439 18.5511ZM14.1097 33.3525C13.8932 32.8544 13.6844 32.3583 13.4879 31.8602H19.5718C20.3603 31.8602 20.76 31.5012 20.76 30.7934V28.7034V26.4923H25.385C25.7086 26.4923 25.9709 26.23 25.9709 25.9063C25.9709 25.5827 25.7086 25.3204 25.385 25.3204H20.7643C20.7718 24.9876 20.7931 24.7154 20.8541 24.5546C20.8837 24.4764 20.9093 24.4089 21.2311 24.4089L23.3349 24.4067C24.6525 24.4055 25.595 24.0867 26.2165 23.4322C26.2453 23.4019 26.2725 23.3701 26.2997 23.3384H30.0268H34.2154V24.9488C34.2154 25.1502 34.0457 25.3204 33.8447 25.3204H28.0115C27.6879 25.3204 27.4256 25.5827 27.4256 25.9063C27.4256 26.23 27.6879 26.4923 28.0115 26.4923H33.5004C33.9636 27.3519 34.3801 28.4215 34.3554 30.1114C33.1961 28.5012 31.3195 27.4658 29.1896 27.4658C27.4792 27.4658 25.8742 28.1367 24.6702 29.3551C23.6018 30.4361 22.9602 31.8391 22.8282 33.3544L14.1097 33.3525ZM29.2627 37.6277C27.431 37.6277 25.8861 36.308 25.5124 34.5265H33.013C32.6392 36.3078 31.0943 37.6277 29.2627 37.6277ZM33.6786 33.3546H24.8469H24.0051C24.2928 30.7052 26.5081 28.6377 29.1896 28.6377C31.5439 28.6377 33.5211 30.1901 34.1758 32.3633C34.1779 32.3702 34.18 32.377 34.1824 32.3838C34.275 32.6956 34.3404 33.0202 34.3757 33.3546H33.6786ZM39.2979 21.2144C39.2979 21.7394 38.8712 22.1666 38.3468 22.1666H30.6126V19.1407H39.2979V21.2144ZM39.2979 17.9688H30.6126V16.7227H39.2979V17.9688ZM39.2979 15.5508H30.6126V14.3592C30.6126 13.8341 31.0393 13.407 31.5636 13.407H38.3468C38.8712 13.407 39.2979 13.8342 39.2979 14.3592V15.5508Z" fill="#09A66D"/>
</svg>
