<svg width="29" height="41" viewBox="0 0 29 41" fill="none" xmlns="http://www.w3.org/2000/svg">
<path d="M9.15568 28.7151H19.5469C19.8705 28.7151 20.1328 28.4527 20.1328 28.1291C20.1328 27.8055 19.8705 27.5432 19.5469 27.5432H9.15568C8.83209 27.5432 8.56974 27.8055 8.56974 28.1291C8.56974 28.4527 8.83209 28.7151 9.15568 28.7151ZM10.9917 15.2727H17.9481C18.4787 15.2727 18.9386 14.9316 19.0926 14.424L20.5526 9.61351C20.6638 9.24734 20.5968 8.86101 20.3688 8.55367C20.1409 8.24632 19.7908 8.07007 19.4081 8.07007H18.8884L17.8264 5.41523C17.5823 4.80398 16.9993 4.40906 16.341 4.40906H12.5988C11.9406 4.40906 11.3576 4.80398 11.1134 5.41492L10.0514 8.06999H9.5317C9.14904 8.06999 8.79888 8.24625 8.57092 8.55367C8.34295 8.86109 8.27599 9.24734 8.38709 9.61351L9.84717 14.424C10.0012 14.9316 10.4612 15.2727 10.9917 15.2727ZM9.51224 9.25164C9.5299 9.22773 12.6993 9.2496 12.7219 9.24187C13.0455 9.24187 13.3079 8.97953 13.3079 8.65593C13.3079 8.33234 13.0455 8.06999 12.7219 8.06999H11.3135L12.2015 5.85C12.2668 5.68656 12.4227 5.58093 12.5988 5.58093H16.341C16.5171 5.58093 16.673 5.68656 16.7383 5.85015L17.6263 8.06999H15.4562C15.1326 8.06999 14.8703 8.33234 14.8703 8.65593C14.8703 8.97953 15.1326 9.24187 15.4562 9.24187C15.4759 9.24187 19.4126 9.2314 19.4276 9.25164C19.445 9.27515 17.9712 14.059 17.9712 14.0837C17.9712 14.1357 10.9716 14.0939 10.9685 14.0837C10.9611 14.0591 9.49482 9.27507 9.51224 9.25164ZM9.15568 34.5604C8.83209 34.5604 8.56974 34.8227 8.56974 35.1463C8.56974 35.4699 8.83209 35.7323 9.15568 35.7323H19.5469C19.8705 35.7323 20.1328 35.4699 20.1328 35.1463C20.1328 34.8227 19.8705 34.5604 19.5469 34.5604H9.15568ZM24.8203 32.8026C24.8203 32.479 24.558 32.2166 24.2344 32.2166H9.15568C8.83209 32.2166 8.56974 32.479 8.56974 32.8026C8.56974 33.1262 8.83209 33.3885 9.15568 33.3885H24.2344C24.558 33.3885 24.8203 33.1262 24.8203 32.8026ZM27.75 26.5423C28.0737 26.5423 28.3359 26.28 28.3359 25.9564V3.82312C28.3359 2.20765 27.0217 0.893433 25.4062 0.893433H3.53357C1.9181 0.893433 0.603882 2.20765 0.603882 3.82312V37.9637C0.603882 39.5792 1.9181 40.8934 3.53357 40.8934H25.4063C27.0218 40.8934 28.336 39.5792 28.336 37.9637V28.6908C28.336 28.3672 28.0737 28.1048 27.7501 28.1048C27.4264 28.1048 27.1641 28.3672 27.1641 28.6908V37.9637C27.1641 38.933 26.3755 39.7216 25.4063 39.7216H3.53357C2.56427 39.7216 1.77576 38.933 1.77576 37.9637V3.82312C1.77576 2.85382 2.56427 2.06531 3.53357 2.06531H25.4063C26.3755 2.06531 27.1641 2.85382 27.1641 3.82312V25.9564C27.164 26.28 27.4264 26.5423 27.75 26.5423ZM6.83927 29.1644C6.55076 29.168 6.24818 29.1709 5.97084 29.1723C6.16787 28.9048 6.41709 28.5597 6.72779 28.1157C7.00029 27.7264 7.1931 27.374 7.24334 27.0078C7.25154 26.9478 7.26732 26.8401 7.26732 26.7828C7.26732 25.9098 6.55709 25.1995 5.68404 25.1995C4.9292 25.1995 4.27584 25.7366 4.13045 26.4766C4.0681 26.7941 4.2749 27.1021 4.59248 27.1644C4.91006 27.2268 5.21802 27.02 5.28037 26.7024C5.31802 26.5105 5.48779 26.3714 5.68404 26.3714C5.90107 26.3714 6.07943 26.5403 6.09443 26.7536C6.10927 26.9641 6.00185 27.1092 5.76771 27.4437C5.15209 28.3234 4.78482 28.8042 4.58755 29.0625C4.2431 29.5135 4.07849 30.1013 4.67513 30.3002C4.75209 30.3258 6.29881 30.3433 6.85396 30.3362C7.17756 30.3322 7.43654 30.0666 7.43248 29.743C7.42842 29.4194 7.16006 29.1582 6.83927 29.1644ZM24.2344 25.1994H9.15568C8.83209 25.1994 8.56974 25.4618 8.56974 25.7854C8.56974 26.109 8.83209 26.3713 9.15568 26.3713H24.2344C24.558 26.3713 24.8203 26.109 24.8203 25.7854C24.8203 25.4618 24.558 25.1994 24.2344 25.1994ZM5.77599 32.2166C5.02115 32.2166 4.36779 32.7537 4.2224 33.4937C4.16005 33.8112 4.36685 34.1192 4.68443 34.1816C5.00177 34.2438 5.3099 34.0371 5.37232 33.7195C5.40998 33.5277 5.57974 33.3885 5.77599 33.3885C6.00287 33.3885 6.1874 33.573 6.1874 33.7999C6.1874 34.0268 6.00287 34.2113 5.77599 34.2113C5.4524 34.2113 5.19006 34.4737 5.19006 34.7973C5.19006 35.1209 5.4524 35.3832 5.77599 35.3832C6.00287 35.3832 6.1874 35.5677 6.1874 35.7946C6.1874 36.0215 6.00287 36.206 5.77599 36.206C5.57185 36.206 5.3967 36.0541 5.36857 35.8524C5.36591 35.8335 5.36459 35.8141 5.36459 35.7946C5.36459 35.471 5.10224 35.2087 4.77865 35.2087C4.45505 35.2087 4.19271 35.471 4.19271 35.7946C4.19271 36.6552 4.90685 37.3779 5.77599 37.3779C6.64904 37.3779 7.35927 36.6677 7.35927 35.7946C7.35927 35.4168 7.22584 35.0698 7.00412 34.7973C7.22584 34.5248 7.35927 34.1777 7.35927 33.7999C7.35927 32.9269 6.64904 32.2166 5.77599 32.2166ZM5.77599 23.2823C6.09959 23.2823 6.36193 23.02 6.36193 22.6964V18.7987C6.36193 18.4752 6.09959 18.2128 5.77599 18.2128H4.94287C4.61927 18.2128 4.35693 18.4752 4.35693 18.7987C4.35693 19.1223 4.61927 19.3847 4.94287 19.3847H5.19006V22.6964C5.19006 23.02 5.4524 23.2823 5.77599 23.2823ZM9.15568 21.7284H19.5469C19.8705 21.7284 20.1328 21.4661 20.1328 21.1425C20.1328 20.8189 19.8705 20.5566 19.5469 20.5566H9.15568C8.83209 20.5566 8.56974 20.8189 8.56974 21.1425C8.56974 21.4661 8.83209 21.7284 9.15568 21.7284ZM24.2344 18.2128H9.15568C8.83209 18.2128 8.56974 18.4752 8.56974 18.7987C8.56974 19.1223 8.83209 19.3847 9.15568 19.3847H24.2344C24.558 19.3847 24.8203 19.1223 24.8203 18.7987C24.8203 18.4752 24.558 18.2128 24.2344 18.2128Z" fill="#09A66D"/>
</svg>
